<svg xmlns="http://www.w3.org/2000/svg" viewBox="0 0 410 404" fill="none">
  <path d="M399.64 34.19L382.72 3.63C380.29 -0.68 374.3 -1.13 371.3 2.77L205 292.05L38.7 2.77C35.7 -1.13 29.71 -0.68 27.28 3.63L10.36 34.19C8.38 37.77 8.95 42.25 11.89 45.23L198.54 233.15C202.04 236.67 207.96 236.67 211.46 233.15L398.11 45.23C401.05 42.25 401.62 37.77 399.64 34.19Z" fill="#bd34fe"/>
  <path d="M205 404L371.3 114.77L399.64 146.19L211.46 335.15C207.96 338.67 202.04 338.67 198.54 335.15L10.36 146.19L38.7 114.77L205 404Z" fill="#41d1ff"/>
</svg>